<svg width="16" height="16" viewBox="0 0 16 16" fill="none" xmlns="http://www.w3.org/2000/svg">
<path d="M11.4743 14.738C11.2562 14.8438 11.0324 14.9398 10.8034 15.0252C10.0786 15.2956 9.32095 15.4542 8.55677 15.5V12.5463C8.9591 12.5065 9.35685 12.4151 9.73955 12.2723C9.81755 12.2432 9.89458 12.2121 9.97057 12.1791L11.4743 14.738ZM5.68654 0.882072C7.23907 0.37589 8.91601 0.372589 10.4706 0.872613C11.5475 1.21898 12.5263 1.79425 13.341 2.55056C13.9426 3.10901 13.7757 4.04158 13.1009 4.51245C12.4262 4.9833 11.4994 4.80116 10.8309 4.32179C10.4398 4.04136 10.004 3.82096 9.53805 3.67108C8.59325 3.3672 7.57408 3.36918 6.63053 3.67681C5.687 3.98445 4.86885 4.58148 4.29643 5.38003C3.72402 6.1786 3.42546 7.13662 3.44856 8.11307C3.47167 9.08952 3.81316 10.0329 4.42272 10.8045C5.03229 11.5761 5.8778 12.1351 6.83487 12.3993C7.04132 12.4563 7.25065 12.4989 7.46129 12.5272V15.4884C6.97764 15.4491 6.49635 15.3645 6.02412 15.2341C4.44933 14.7994 3.05808 13.8795 2.05509 12.61C1.0521 11.3404 0.490271 9.78816 0.452251 8.1815C0.414245 6.57484 0.90409 4.99855 1.84594 3.68459C2.7878 2.37062 4.13402 1.38826 5.68654 0.882072ZM14.5127 12.0753C13.9612 12.9155 13.2481 13.6338 12.4194 14.1935L10.9131 11.6304C11.297 11.3418 11.6346 10.9947 11.912 10.6001L14.5127 12.0753Z" fill="url(#paint0_linear_1_295)"/>
<defs>
<linearGradient id="paint0_linear_1_295" x1="12.3386" y1="4.39785" x2="3.12426" y2="14.0337" gradientUnits="userSpaceOnUse">
<stop stop-color="#34D399"/>
<stop offset="0.711865" stop-color="#0284C7"/>
<stop offset="1" stop-color="#6366F1"/>
</linearGradient>
</defs>
</svg>
