<svg width="690" height="279" viewBox="0 0 690 279" fill="none" xmlns="http://www.w3.org/2000/svg">
<path d="M163.856 272.476C164.384 274.443 164.647 275.426 164.159 276.174C163.671 276.922 162.684 277.074 160.712 277.377C154.499 278.333 148.234 278.866 141.958 278.976C140.117 279.008 139.197 279.025 138.599 278.437C138 277.849 138 276.91 138 275.032V228.338C138 226.442 138 225.494 138.565 224.912C139.13 224.33 140.11 224.301 142.071 224.241C143.8 224.189 145.526 224.084 147.249 223.926C148.956 223.77 149.81 223.691 150.409 224.109C151.008 224.527 151.222 225.327 151.651 226.928L163.856 272.476ZM95.5991 7.09998C123.943 -2.30627 154.559 -2.3677 182.941 6.9242C202.601 13.3607 220.471 24.0505 235.345 38.1049C246.328 48.4823 243.281 65.812 230.962 74.5619C218.644 83.3118 201.724 79.9269 189.519 71.0189C182.379 65.8078 174.423 61.7124 165.915 58.9271C148.666 53.28 130.06 53.3169 112.833 59.0336C95.6073 64.7503 80.6707 75.8446 70.2202 90.684C59.7696 105.524 54.3188 123.326 54.7407 141.471C55.1626 159.616 61.397 177.147 72.5258 191.485C83.6546 205.822 99.0907 216.21 116.564 221.12C119.205 221.863 121.871 222.473 124.554 222.953C126.23 223.252 127.068 223.402 127.534 223.959C128 224.517 128 225.34 128 226.986V274.179C128 276.224 128 277.246 127.332 277.843C126.664 278.439 125.668 278.326 123.677 278.098C116.304 277.257 108.975 275.826 101.762 273.799C73.0113 265.72 47.6118 248.627 29.3002 225.036C10.9887 201.444 0.731671 172.599 0.0375383 142.743C-0.656366 112.887 8.28661 83.595 25.4819 59.1781C42.6773 34.7611 67.2548 16.5063 95.5991 7.09998ZM198.372 261.228C199.383 262.98 199.889 263.856 199.616 264.702C199.343 265.547 198.438 265.953 196.629 266.765C194.129 267.888 191.591 268.939 189.017 269.916C185.574 271.224 182.091 272.389 178.575 273.414C176.801 273.932 175.914 274.191 175.181 273.778C174.448 273.365 174.204 272.455 173.716 270.634L161.628 225.522C161.14 223.703 160.896 222.793 161.287 222.087C161.677 221.381 162.609 221.094 164.472 220.52C166.193 219.99 167.902 219.404 169.594 218.761C169.646 218.741 169.698 218.722 169.75 218.702C171.369 218.083 172.179 217.774 172.873 218.02C173.568 218.267 173.987 218.992 174.824 220.443L198.372 261.228ZM228.912 240.984C230.33 242.402 231.039 243.111 230.999 243.992C230.958 244.874 230.203 245.502 228.691 246.759C223.67 250.934 218.357 254.756 212.79 258.194C211.207 259.172 210.416 259.66 209.596 259.453C208.776 259.247 208.301 258.425 207.352 256.781L183.993 216.321C183.061 214.707 182.595 213.9 182.783 213.123C182.972 212.345 183.782 211.823 185.403 210.779C187.062 209.71 188.681 208.585 190.259 207.405C191.668 206.352 192.373 205.825 193.117 205.878C193.86 205.932 194.462 206.533 195.665 207.736L228.912 240.984ZM253.042 213.079C254.761 214.071 255.62 214.567 255.813 215.422C256.005 216.276 255.453 217.077 254.349 218.678C250.576 224.151 246.432 229.325 241.955 234.169C240.682 235.548 240.045 236.237 239.193 236.254C238.342 236.271 237.665 235.594 236.311 234.24L203.255 201.184C201.956 199.885 201.307 199.236 201.282 198.445C201.257 197.654 201.884 196.94 203.14 195.514C204.494 193.976 205.794 192.387 207.037 190.749C208.119 189.322 208.66 188.609 209.401 188.46C210.142 188.31 210.892 188.743 212.391 189.608L253.042 213.079Z" fill="url(#paint0_linear_18_5)"/>
<path d="M347.187 187.889C338.115 187.889 330.345 185.915 323.877 181.967C317.409 177.977 312.432 172.433 308.946 165.335C305.502 158.237 303.78 150.005 303.78 140.639C303.78 131.273 305.502 123.041 308.946 115.943C312.432 108.845 317.409 103.322 323.877 99.3744C330.345 95.3844 338.115 93.3894 347.187 93.3894C357.645 93.3894 366.36 96.0144 373.332 101.264C380.304 106.472 385.197 113.507 388.011 122.369L372.702 126.59C370.938 120.668 367.935 116.048 363.693 112.73C359.451 109.37 353.949 107.69 347.187 107.69C341.097 107.69 336.015 109.055 331.941 111.785C327.909 114.515 324.864 118.358 322.806 123.314C320.79 128.228 319.761 134.003 319.719 140.639C319.719 147.275 320.727 153.071 322.743 158.027C324.801 162.941 327.867 166.763 331.941 169.493C336.015 172.223 341.097 173.588 347.187 173.588C353.949 173.588 359.451 171.908 363.693 168.548C367.935 165.188 370.938 160.568 372.702 154.688L388.011 158.909C385.197 167.771 380.304 174.827 373.332 180.077C366.36 185.285 357.645 187.889 347.187 187.889ZM410.789 216.239L423.893 180.266L424.145 190.85L394.472 117.959H410.285L431.327 171.887H427.295L447.77 117.959H462.953L425.027 216.239H410.789ZM499.435 187.889C492.421 187.889 486.436 186.335 481.48 183.227C476.524 180.077 472.723 175.793 470.077 170.375C467.473 164.957 466.15 158.825 466.108 151.979C466.15 145.007 467.515 138.833 470.203 133.457C472.933 128.039 476.797 123.797 481.795 120.731C486.793 117.623 492.736 116.069 499.624 116.069C507.352 116.069 513.883 118.022 519.217 121.928C524.593 125.792 528.1 131.084 529.738 137.804L514.618 141.899C513.442 138.245 511.489 135.41 508.759 133.394C506.029 131.336 502.921 130.307 499.435 130.307C495.487 130.307 492.232 131.252 489.67 133.142C487.108 134.99 485.218 137.552 484 140.828C482.782 144.104 482.173 147.821 482.173 151.979C482.173 158.447 483.622 163.676 486.52 167.666C489.418 171.656 493.723 173.651 499.435 173.651C503.467 173.651 506.638 172.727 508.948 170.879C511.3 169.031 513.064 166.364 514.24 162.878L529.738 166.343C527.638 173.273 523.963 178.607 518.713 182.345C513.463 186.041 507.037 187.889 499.435 187.889ZM541.777 185.999V93.3894H556.96V185.999H541.777ZM594.858 187.889C589.944 187.889 585.786 186.965 582.384 185.117C578.982 183.227 576.399 180.728 574.635 177.62C572.913 174.512 572.052 171.089 572.052 167.351C572.052 164.075 572.598 161.135 573.69 158.531C574.782 155.885 576.462 153.617 578.73 151.727C580.998 149.795 583.938 148.22 587.55 147.002C590.28 146.12 593.472 145.322 597.126 144.608C600.822 143.894 604.812 143.243 609.096 142.655C613.422 142.025 617.937 141.353 622.641 140.639L617.223 143.726C617.265 139.022 616.215 135.557 614.073 133.331C611.931 131.105 608.319 129.992 603.237 129.992C600.171 129.992 597.21 130.706 594.354 132.134C591.498 133.562 589.503 136.019 588.369 139.505L574.509 135.158C576.189 129.404 579.381 124.784 584.085 121.298C588.831 117.812 595.215 116.069 603.237 116.069C609.285 116.069 614.598 117.056 619.176 119.03C623.796 121.004 627.219 124.238 629.445 128.732C630.663 131.126 631.398 133.583 631.65 136.103C631.902 138.581 632.028 141.29 632.028 144.23V185.999H618.735V171.257L620.94 173.651C617.874 178.565 614.283 182.177 610.167 184.487C606.093 186.755 600.99 187.889 594.858 187.889ZM597.882 175.793C601.326 175.793 604.266 175.184 606.702 173.966C609.138 172.748 611.07 171.257 612.498 169.493C613.968 167.729 614.955 166.07 615.459 164.516C616.257 162.584 616.698 160.379 616.782 157.901C616.908 155.381 616.971 153.344 616.971 151.79L621.633 153.176C617.055 153.89 613.128 154.52 609.852 155.066C606.576 155.612 603.762 156.137 601.41 156.641C599.058 157.103 596.979 157.628 595.173 158.216C593.409 158.846 591.918 159.581 590.7 160.421C589.482 161.261 588.537 162.227 587.865 163.319C587.235 164.411 586.92 165.692 586.92 167.162C586.92 168.842 587.34 170.333 588.18 171.635C589.02 172.895 590.238 173.903 591.834 174.659C593.472 175.415 595.488 175.793 597.882 175.793ZM648.429 185.999V117.959H661.848V134.528L660.21 132.386C661.05 130.118 662.163 128.06 663.549 126.212C664.977 124.322 666.678 122.768 668.652 121.55C670.332 120.416 672.18 119.534 674.196 118.904C676.254 118.232 678.354 117.833 680.496 117.707C682.638 117.539 684.717 117.623 686.733 117.959V132.134C684.717 131.546 682.386 131.357 679.74 131.567C677.136 131.777 674.784 132.512 672.684 133.772C670.584 134.906 668.862 136.355 667.518 138.119C666.216 139.883 665.25 141.899 664.62 144.167C663.99 146.393 663.675 148.808 663.675 151.412V185.999H648.429Z" fill="#030712"/>
<defs>
<linearGradient id="paint0_linear_18_5" x1="217" y1="72.4994" x2="45.5" y2="248.499" gradientUnits="userSpaceOnUse">
<stop stop-color="#34D399"/>
<stop offset="0.711865" stop-color="#0284C7"/>
<stop offset="1" stop-color="#6366F1"/>
</linearGradient>
</defs>
</svg>
