<svg width="383" height="449" viewBox="0 0 383 449" fill="none" xmlns="http://www.w3.org/2000/svg">
<path d="M227.076 272.476C227.603 274.443 227.867 275.426 227.379 276.174C226.891 276.922 225.904 277.074 223.931 277.377C217.719 278.333 211.453 278.866 205.177 278.976C203.337 279.008 202.417 279.025 201.818 278.437C201.22 277.849 201.22 276.91 201.22 275.032V228.338C201.22 226.442 201.22 225.494 201.785 224.912C202.349 224.33 203.33 224.301 205.291 224.241C207.019 224.189 208.746 224.084 210.469 223.926C212.176 223.77 213.03 223.691 213.629 224.109C214.228 224.527 214.442 225.327 214.871 226.928L227.076 272.476ZM158.819 7.09998C187.163 -2.30627 217.779 -2.3677 246.161 6.9242C265.821 13.3607 283.691 24.0505 298.565 38.1049C309.548 48.4823 306.501 65.812 294.182 74.5619C281.863 83.3118 264.944 79.9269 252.739 71.0189C245.599 65.8078 237.643 61.7124 229.135 58.9271C211.886 53.28 193.279 53.3169 176.053 59.0336C158.827 64.7503 143.89 75.8446 133.44 90.684C122.989 105.524 117.539 123.326 117.96 141.471C118.382 159.616 124.617 177.147 135.746 191.485C146.874 205.822 162.31 216.21 179.784 221.12C182.424 221.863 185.091 222.473 187.773 222.953C189.449 223.252 190.288 223.402 190.754 223.959C191.22 224.517 191.22 225.34 191.22 226.986V274.179C191.22 276.224 191.22 277.246 190.552 277.843C189.883 278.439 188.888 278.326 186.897 278.099C179.524 277.257 172.195 275.826 164.982 273.799C136.231 265.72 110.832 248.627 92.52 225.036C74.2085 201.444 63.9514 172.599 63.2573 142.743C62.5634 112.887 71.5063 83.595 88.7016 59.1781C105.897 34.7611 130.475 16.5063 158.819 7.09998ZM261.592 261.228C262.603 262.98 263.109 263.856 262.836 264.702C262.562 265.547 261.658 265.953 259.849 266.765C257.349 267.888 254.81 268.939 252.237 269.916C248.794 271.224 245.311 272.389 241.795 273.414C240.021 273.932 239.134 274.191 238.401 273.778C237.667 273.365 237.424 272.455 236.936 270.634L224.847 225.522C224.36 223.703 224.116 222.793 224.507 222.087C224.897 221.381 225.828 221.094 227.691 220.52C229.413 219.99 231.122 219.404 232.814 218.761C232.866 218.741 232.918 218.722 232.969 218.702C234.589 218.083 235.399 217.774 236.093 218.02C236.788 218.267 237.206 218.992 238.044 220.443L261.592 261.228ZM292.132 240.984C293.55 242.402 294.259 243.111 294.219 243.992C294.178 244.874 293.422 245.502 291.911 246.759C286.89 250.934 281.577 254.756 276.01 258.194C274.427 259.171 273.636 259.66 272.815 259.453C271.995 259.247 271.521 258.425 270.572 256.781L247.212 216.321C246.281 214.707 245.815 213.9 246.003 213.123C246.191 212.345 247.002 211.823 248.623 210.779C250.281 209.71 251.901 208.585 253.479 207.405C254.888 206.352 255.593 205.825 256.336 205.878C257.08 205.932 257.681 206.533 258.884 207.736L292.132 240.984ZM316.262 213.079C317.98 214.071 318.84 214.567 319.032 215.422C319.225 216.276 318.673 217.077 317.569 218.678C313.796 224.151 309.652 229.325 305.175 234.169C303.901 235.548 303.265 236.237 302.413 236.254C301.562 236.271 300.885 235.594 299.531 234.24L266.475 201.184C265.176 199.885 264.527 199.236 264.502 198.445C264.476 197.654 265.104 196.94 266.36 195.514C267.714 193.976 269.013 192.387 270.257 190.749C271.339 189.322 271.88 188.609 272.621 188.46C273.362 188.31 274.111 188.743 275.61 189.608L316.262 213.079Z" fill="url(#paint0_linear_1_267)"/>
<path d="M344.649 418V349.96H358.068V366.529L356.43 364.387C357.27 362.119 358.383 360.061 359.769 358.213C361.197 356.323 362.898 354.769 364.872 353.551C366.552 352.417 368.4 351.535 370.416 350.905C372.474 350.233 374.574 349.834 376.716 349.708C378.858 349.54 380.937 349.624 382.953 349.96V364.135C380.937 363.547 378.606 363.358 375.96 363.568C373.356 363.778 371.004 364.513 368.904 365.773C366.804 366.907 365.082 368.356 363.738 370.12C362.436 371.884 361.47 373.9 360.84 376.168C360.21 378.394 359.895 380.809 359.895 383.413V418H344.649Z" fill="#F9FAFB"/>
<path d="M291.077 419.89C286.163 419.89 282.005 418.966 278.603 417.118C275.201 415.228 272.618 412.729 270.854 409.621C269.132 406.513 268.271 403.09 268.271 399.352C268.271 396.076 268.817 393.136 269.909 390.532C271.001 387.886 272.681 385.618 274.949 383.728C277.217 381.796 280.157 380.221 283.769 379.003C286.499 378.121 289.691 377.323 293.345 376.609C297.041 375.895 301.031 375.244 305.315 374.656C309.641 374.026 314.156 373.354 318.86 372.64L313.442 375.727C313.484 371.023 312.434 367.558 310.292 365.332C308.15 363.106 304.538 361.993 299.456 361.993C296.39 361.993 293.429 362.707 290.573 364.135C287.717 365.563 285.722 368.02 284.588 371.506L270.728 367.159C272.408 361.405 275.6 356.785 280.304 353.299C285.05 349.813 291.434 348.07 299.456 348.07C305.504 348.07 310.817 349.057 315.395 351.031C320.015 353.005 323.438 356.239 325.664 360.733C326.882 363.127 327.617 365.584 327.869 368.104C328.121 370.582 328.247 373.291 328.247 376.231V418H314.954V403.258L317.159 405.652C314.093 410.566 310.502 414.178 306.386 416.488C302.312 418.756 297.209 419.89 291.077 419.89ZM294.101 407.794C297.545 407.794 300.485 407.185 302.921 405.967C305.357 404.749 307.289 403.258 308.717 401.494C310.187 399.73 311.174 398.071 311.678 396.517C312.476 394.585 312.917 392.38 313.001 389.902C313.127 387.382 313.19 385.345 313.19 383.791L317.852 385.177C313.274 385.891 309.347 386.521 306.071 387.067C302.795 387.613 299.981 388.138 297.629 388.642C295.277 389.104 293.198 389.629 291.392 390.217C289.628 390.847 288.137 391.582 286.919 392.422C285.701 393.262 284.756 394.228 284.084 395.32C283.454 396.412 283.139 397.693 283.139 399.163C283.139 400.843 283.559 402.334 284.399 403.636C285.239 404.896 286.457 405.904 288.053 406.66C289.691 407.416 291.707 407.794 294.101 407.794Z" fill="#F9FAFB"/>
<path d="M237.997 418V325.39H253.18V418H237.997Z" fill="#F9FAFB"/>
<path d="M195.655 419.89C188.641 419.89 182.656 418.336 177.7 415.228C172.744 412.078 168.943 407.794 166.297 402.376C163.693 396.958 162.37 390.826 162.328 383.98C162.37 377.008 163.735 370.834 166.423 365.458C169.153 360.04 173.017 355.798 178.015 352.732C183.013 349.624 188.956 348.07 195.844 348.07C203.572 348.07 210.103 350.023 215.437 353.929C220.813 357.793 224.32 363.085 225.958 369.805L210.838 373.9C209.662 370.246 207.709 367.411 204.979 365.395C202.249 363.337 199.141 362.308 195.655 362.308C191.707 362.308 188.452 363.253 185.89 365.143C183.328 366.991 181.438 369.553 180.22 372.829C179.002 376.105 178.393 379.822 178.393 383.98C178.393 390.448 179.842 395.677 182.74 399.667C185.638 403.657 189.943 405.652 195.655 405.652C199.687 405.652 202.858 404.728 205.168 402.88C207.52 401.032 209.284 398.365 210.46 394.879L225.958 398.344C223.858 405.274 220.183 410.608 214.933 414.346C209.683 418.042 203.257 419.89 195.655 419.89Z" fill="#F9FAFB"/>
<path d="M107.009 448.24L120.113 412.267L120.365 422.851L90.6924 349.96H106.505L127.547 403.888H123.515L143.99 349.96H159.173L121.247 448.24H107.009Z" fill="#F9FAFB"/>
<path d="M43.407 419.89C34.335 419.89 26.565 417.916 20.097 413.968C13.629 409.978 8.652 404.434 5.166 397.336C1.722 390.238 0 382.006 0 372.64C0 363.274 1.722 355.042 5.166 347.944C8.652 340.846 13.629 335.323 20.097 331.375C26.565 327.385 34.335 325.39 43.407 325.39C53.865 325.39 62.58 328.015 69.552 333.265C76.524 338.473 81.417 345.508 84.231 354.37L68.922 358.591C67.158 352.669 64.155 348.049 59.913 344.731C55.671 341.371 50.169 339.691 43.407 339.691C37.317 339.691 32.235 341.056 28.161 343.786C24.129 346.516 21.084 350.359 19.026 355.315C17.01 360.229 15.981 366.004 15.939 372.64C15.939 379.276 16.947 385.072 18.963 390.028C21.021 394.942 24.087 398.764 28.161 401.494C32.235 404.224 37.317 405.589 43.407 405.589C50.169 405.589 55.671 403.909 59.913 400.549C64.155 397.189 67.158 392.569 68.922 386.689L84.231 390.91C81.417 399.772 76.524 406.828 69.552 412.078C62.58 417.286 53.865 419.89 43.407 419.89Z" fill="#F9FAFB"/>
<defs>
<linearGradient id="paint0_linear_1_267" x1="280.22" y1="72.4994" x2="108.72" y2="248.499" gradientUnits="userSpaceOnUse">
<stop stop-color="#34D399"/>
<stop offset="0.711865" stop-color="#0284C7"/>
<stop offset="1" stop-color="#6366F1"/>
</linearGradient>
</defs>
</svg>
