<svg width="257" height="279" viewBox="0 0 257 279" fill="none" xmlns="http://www.w3.org/2000/svg">
<path d="M163.856 272.476C164.384 274.443 164.647 275.426 164.159 276.174C163.671 276.922 162.684 277.074 160.712 277.377C154.499 278.333 148.234 278.866 141.958 278.976C140.117 279.008 139.197 279.025 138.599 278.437C138 277.849 138 276.91 138 275.032V228.338C138 226.442 138 225.494 138.565 224.912C139.13 224.33 140.11 224.301 142.071 224.241C143.8 224.189 145.526 224.084 147.249 223.926C148.956 223.77 149.81 223.691 150.409 224.109C151.008 224.527 151.222 225.327 151.651 226.928L163.856 272.476ZM95.5991 7.09998C123.943 -2.30627 154.559 -2.3677 182.941 6.9242C202.601 13.3607 220.471 24.0505 235.345 38.1049C246.328 48.4823 243.281 65.812 230.962 74.5619C218.644 83.3118 201.724 79.9269 189.519 71.0189C182.379 65.8078 174.423 61.7124 165.915 58.9271C148.666 53.28 130.06 53.3169 112.833 59.0336C95.6073 64.7503 80.6707 75.8446 70.2202 90.684C59.7696 105.524 54.3188 123.326 54.7407 141.471C55.1626 159.616 61.397 177.147 72.5258 191.485C83.6546 205.822 99.0907 216.21 116.564 221.12C119.205 221.863 121.871 222.473 124.554 222.953C126.23 223.252 127.068 223.402 127.534 223.959C128 224.517 128 225.34 128 226.986V274.179C128 276.224 128 277.246 127.332 277.843C126.664 278.439 125.668 278.326 123.677 278.099C116.304 277.257 108.975 275.826 101.762 273.799C73.0113 265.72 47.6118 248.627 29.3002 225.036C10.9887 201.444 0.731671 172.599 0.0375383 142.743C-0.656366 112.887 8.28661 83.595 25.4819 59.1781C42.6773 34.7611 67.2548 16.5063 95.5991 7.09998ZM198.372 261.228C199.383 262.98 199.889 263.856 199.616 264.702C199.343 265.547 198.438 265.953 196.629 266.765C194.129 267.888 191.591 268.939 189.017 269.916C185.574 271.224 182.091 272.389 178.575 273.414C176.801 273.932 175.914 274.191 175.181 273.778C174.448 273.365 174.204 272.455 173.716 270.634L161.628 225.522C161.14 223.703 160.896 222.793 161.287 222.087C161.677 221.381 162.609 221.094 164.472 220.52C166.193 219.99 167.902 219.404 169.594 218.761C169.646 218.741 169.698 218.722 169.75 218.702C171.369 218.083 172.179 217.774 172.873 218.02C173.568 218.267 173.987 218.992 174.824 220.443L198.372 261.228ZM228.912 240.984C230.33 242.402 231.039 243.111 230.999 243.992C230.958 244.874 230.203 245.502 228.691 246.759C223.67 250.934 218.357 254.756 212.79 258.194C211.207 259.171 210.416 259.66 209.596 259.453C208.776 259.247 208.301 258.425 207.352 256.781L183.993 216.321C183.061 214.707 182.595 213.9 182.783 213.123C182.972 212.345 183.782 211.823 185.403 210.779C187.062 209.71 188.681 208.585 190.259 207.405C191.668 206.352 192.373 205.825 193.117 205.878C193.86 205.932 194.462 206.533 195.665 207.736L228.912 240.984ZM253.042 213.079C254.761 214.071 255.62 214.567 255.813 215.422C256.005 216.276 255.453 217.077 254.349 218.678C250.576 224.151 246.432 229.325 241.955 234.169C240.682 235.548 240.045 236.237 239.193 236.254C238.342 236.271 237.665 235.594 236.311 234.24L203.255 201.184C201.956 199.885 201.307 199.236 201.282 198.445C201.257 197.654 201.884 196.94 203.14 195.514C204.494 193.976 205.794 192.387 207.037 190.749C208.119 189.322 208.66 188.609 209.401 188.46C210.142 188.31 210.892 188.743 212.391 189.608L253.042 213.079Z" fill="url(#paint0_linear_1_251)"/>
<defs>
<linearGradient id="paint0_linear_1_251" x1="217" y1="72.4994" x2="45.5" y2="248.499" gradientUnits="userSpaceOnUse">
<stop stop-color="#34D399"/>
<stop offset="0.711865" stop-color="#0284C7"/>
<stop offset="1" stop-color="#6366F1"/>
</linearGradient>
</defs>
</svg>
