<svg width="383" height="123" viewBox="0 0 383 123" fill="none" xmlns="http://www.w3.org/2000/svg">
<path d="M344.649 92.61V24.57H358.068V41.139L356.43 38.997C357.27 36.729 358.383 34.671 359.769 32.823C361.197 30.933 362.898 29.379 364.872 28.161C366.552 27.027 368.4 26.145 370.416 25.515C372.474 24.843 374.574 24.444 376.716 24.318C378.858 24.15 380.937 24.234 382.953 24.57V38.745C380.937 38.157 378.606 37.968 375.96 38.178C373.356 38.388 371.004 39.123 368.904 40.383C366.804 41.517 365.082 42.966 363.738 44.73C362.436 46.494 361.47 48.51 360.84 50.778C360.21 53.004 359.895 55.419 359.895 58.023V92.61H344.649Z" fill="#030712"/>
<path d="M291.077 94.5C286.163 94.5 282.005 93.576 278.603 91.728C275.201 89.838 272.618 87.339 270.854 84.231C269.132 81.123 268.271 77.7 268.271 73.962C268.271 70.686 268.817 67.746 269.909 65.142C271.001 62.496 272.681 60.228 274.949 58.338C277.217 56.406 280.157 54.831 283.769 53.613C286.499 52.731 289.691 51.933 293.345 51.219C297.041 50.505 301.031 49.854 305.315 49.266C309.641 48.636 314.156 47.964 318.86 47.25L313.442 50.337C313.484 45.633 312.434 42.168 310.292 39.942C308.15 37.716 304.538 36.603 299.456 36.603C296.39 36.603 293.429 37.317 290.573 38.745C287.717 40.173 285.722 42.63 284.588 46.116L270.728 41.769C272.408 36.015 275.6 31.395 280.304 27.909C285.05 24.423 291.434 22.68 299.456 22.68C305.504 22.68 310.817 23.667 315.395 25.641C320.015 27.615 323.438 30.849 325.664 35.343C326.882 37.737 327.617 40.194 327.869 42.714C328.121 45.192 328.247 47.901 328.247 50.841V92.61H314.954V77.868L317.159 80.262C314.093 85.176 310.502 88.788 306.386 91.098C302.312 93.366 297.209 94.5 291.077 94.5ZM294.101 82.404C297.545 82.404 300.485 81.795 302.921 80.577C305.357 79.359 307.289 77.868 308.717 76.104C310.187 74.34 311.174 72.681 311.678 71.127C312.476 69.195 312.917 66.99 313.001 64.512C313.127 61.992 313.19 59.955 313.19 58.401L317.852 59.787C313.274 60.501 309.347 61.131 306.071 61.677C302.795 62.223 299.981 62.748 297.629 63.252C295.277 63.714 293.198 64.239 291.392 64.827C289.628 65.457 288.137 66.192 286.919 67.032C285.701 67.872 284.756 68.838 284.084 69.93C283.454 71.022 283.139 72.303 283.139 73.773C283.139 75.453 283.559 76.944 284.399 78.246C285.239 79.506 286.457 80.514 288.053 81.27C289.691 82.026 291.707 82.404 294.101 82.404Z" fill="#030712"/>
<path d="M237.997 92.61V0H253.18V92.61H237.997Z" fill="#030712"/>
<path d="M195.655 94.5C188.641 94.5 182.656 92.946 177.7 89.838C172.744 86.688 168.943 82.404 166.297 76.986C163.693 71.568 162.37 65.436 162.328 58.59C162.37 51.618 163.735 45.444 166.423 40.068C169.153 34.65 173.017 30.408 178.015 27.342C183.013 24.234 188.956 22.68 195.844 22.68C203.572 22.68 210.103 24.633 215.437 28.539C220.813 32.403 224.32 37.695 225.958 44.415L210.838 48.51C209.662 44.856 207.709 42.021 204.979 40.005C202.249 37.947 199.141 36.918 195.655 36.918C191.707 36.918 188.452 37.863 185.89 39.753C183.328 41.601 181.438 44.163 180.22 47.439C179.002 50.715 178.393 54.432 178.393 58.59C178.393 65.058 179.842 70.287 182.74 74.277C185.638 78.267 189.943 80.262 195.655 80.262C199.687 80.262 202.858 79.338 205.168 77.49C207.52 75.642 209.284 72.975 210.46 69.489L225.958 72.954C223.858 79.884 220.183 85.218 214.933 88.956C209.683 92.652 203.257 94.5 195.655 94.5Z" fill="#030712"/>
<path d="M107.009 122.85L120.113 86.877L120.365 97.461L90.6924 24.57H106.505L127.547 78.498H123.515L143.99 24.57H159.173L121.247 122.85H107.009Z" fill="#030712"/>
<path d="M43.407 94.5C34.335 94.5 26.565 92.526 20.097 88.578C13.629 84.588 8.652 79.044 5.166 71.946C1.722 64.848 0 56.616 0 47.25C0 37.884 1.722 29.652 5.166 22.554C8.652 15.456 13.629 9.933 20.097 5.98499C26.565 1.995 34.335 0 43.407 0C53.865 0 62.58 2.625 69.552 7.875C76.524 13.083 81.417 20.118 84.231 28.98L68.922 33.201C67.158 27.279 64.155 22.659 59.913 19.341C55.671 15.981 50.169 14.301 43.407 14.301C37.317 14.301 32.235 15.666 28.161 18.396C24.129 21.126 21.084 24.969 19.026 29.925C17.01 34.839 15.981 40.614 15.939 47.25C15.939 53.886 16.947 59.682 18.963 64.638C21.021 69.552 24.087 73.374 28.161 76.104C32.235 78.834 37.317 80.199 43.407 80.199C50.169 80.199 55.671 78.519 59.913 75.159C64.155 71.799 67.158 67.179 68.922 61.299L84.231 65.52C81.417 74.382 76.524 81.438 69.552 86.688C62.58 91.896 53.865 94.5 43.407 94.5Z" fill="#030712"/>
</svg>
